<svg width="38" height="38" viewBox="0 0 38 38" fill="none" xmlns="http://www.w3.org/2000/svg">
<g clip-path="url(#clip0_341_10827)">
<path d="M37.9832 26.9163C37.9778 26.889 37.9707 26.8629 37.9618 26.8361C37.9529 26.8118 37.9452 26.7892 37.9339 26.7661C37.9226 26.7447 37.9095 26.7251 37.8965 26.7043C37.887 26.6907 37.8852 26.6746 37.8751 26.6616C37.8674 26.6515 37.8561 26.6479 37.8484 26.6384C37.8306 26.6182 37.8122 26.601 37.792 26.5832C37.7837 26.5755 37.7795 26.566 37.7712 26.5589L33.1827 22.9898C33.2237 22.5493 33.2504 22.1045 33.2504 21.6628C33.2504 16.0732 29.9984 11.04 24.9403 8.71667V5.03542C24.9403 5.02295 24.9337 5.01286 24.9331 5.00039C24.9314 4.97427 24.9278 4.94992 24.923 4.92439C24.9177 4.89708 24.9106 4.87155 24.9017 4.84483C24.8934 4.82049 24.8856 4.79792 24.8738 4.77536C24.8631 4.75339 24.8494 4.7338 24.8364 4.71361C24.8269 4.69995 24.8251 4.68392 24.815 4.67086C24.8073 4.66077 24.796 4.6572 24.7877 4.6477C24.7704 4.62752 24.752 4.6103 24.7319 4.59248C24.7235 4.58477 24.7194 4.57527 24.7111 4.56814L19.3649 0.410703C19.3525 0.401203 19.3376 0.398828 19.3252 0.391109C19.2907 0.367953 19.2551 0.351922 19.2171 0.336484C19.1815 0.322828 19.1488 0.309172 19.112 0.302047C19.0752 0.295516 19.0384 0.294922 19.0004 0.294922C18.963 0.294922 18.9262 0.295516 18.8888 0.302641C18.8519 0.309766 18.8193 0.323422 18.7837 0.337672C18.7463 0.352516 18.7106 0.368547 18.6762 0.391109C18.6631 0.400016 18.6477 0.401797 18.6358 0.411297L13.2897 4.56873C13.2796 4.57645 13.276 4.58773 13.2665 4.59605C13.2481 4.61208 13.2309 4.6287 13.2149 4.64652C13.206 4.65661 13.1941 4.66077 13.1858 4.67145C13.1751 4.68452 13.1733 4.70055 13.1644 4.7142C13.1508 4.73558 13.1365 4.75577 13.1258 4.77833C13.1151 4.7997 13.108 4.82108 13.0997 4.84423C13.0902 4.87095 13.0831 4.89708 13.0777 4.92498C13.073 4.95052 13.0694 4.97545 13.0676 5.00158C13.067 5.01405 13.0605 5.02414 13.0605 5.0372V8.71727C8.00235 11.0394 4.75038 16.0726 4.75038 21.6628C4.75038 22.1069 4.7771 22.551 4.81748 22.9898L0.230164 26.5577C0.22007 26.5654 0.216508 26.5767 0.207008 26.585C0.188602 26.601 0.171383 26.6176 0.154758 26.636C0.146445 26.6455 0.13457 26.6497 0.126258 26.6604C0.116164 26.6735 0.113789 26.6895 0.104883 26.7025C0.0912266 26.7245 0.0769766 26.7441 0.0662891 26.7673C0.0556016 26.7892 0.0484766 26.8106 0.0401641 26.8338C0.0306641 26.8605 0.0241328 26.8854 0.0187891 26.9127C0.0134453 26.9389 0.00988281 26.9638 0.00810156 26.9905C0.00750781 27.003 0.000976562 27.0131 0.000976562 27.0261V32.9613C0.000976562 32.9737 0.00750781 32.9844 0.00810156 32.9969C0.0110703 33.0385 0.0211641 33.077 0.0324453 33.1174C0.0425391 33.153 0.0502578 33.1875 0.0662891 33.2201C0.0823203 33.2528 0.104289 33.2801 0.126852 33.3092C0.151789 33.3431 0.176133 33.3751 0.207602 33.4024C0.217102 33.4107 0.220664 33.422 0.230758 33.4297L5.57688 37.5872C5.60004 37.6056 5.62735 37.6139 5.65288 37.6276C5.66832 37.6371 5.68138 37.6495 5.69741 37.6566C5.7081 37.662 5.71879 37.6656 5.73007 37.6691C5.79895 37.6958 5.8696 37.7119 5.94085 37.7119H5.94145C5.94145 37.7119 5.94145 37.7119 5.94204 37.7119C6.01329 37.7119 6.08395 37.6958 6.15282 37.6691C6.1641 37.665 6.17479 37.6614 6.18548 37.6566C6.20151 37.6495 6.21457 37.6371 6.23001 37.6276C6.25554 37.6139 6.28285 37.6056 6.30601 37.5872L11.3434 33.6696C13.6323 35.1326 16.2662 35.9122 19.0004 35.9122C21.734 35.9122 24.3691 35.1326 26.6574 33.669L31.6954 37.5872C31.7185 37.6056 31.7458 37.6139 31.7714 37.6276C31.7868 37.6371 31.7999 37.6495 31.8159 37.6566C31.8266 37.662 31.8373 37.6656 31.8485 37.6691C31.9174 37.6958 31.9881 37.7119 32.0593 37.7119H32.0599C32.0599 37.7119 32.0599 37.7119 32.0605 37.7119C32.1318 37.7119 32.2024 37.6958 32.2713 37.6691C32.2826 37.665 32.2933 37.6614 32.3039 37.6566C32.32 37.6495 32.333 37.6371 32.3485 37.6276C32.374 37.6139 32.4013 37.6056 32.4245 37.5872L37.7706 33.4297C37.7807 33.422 37.7843 33.4107 37.7938 33.4024C37.8252 33.3751 37.8496 33.3425 37.8745 33.3092C37.8965 33.2795 37.919 33.2522 37.9351 33.2201C37.9511 33.1881 37.9588 33.153 37.9689 33.1174C37.9802 33.077 37.9903 33.0385 37.9933 32.9969C37.9939 32.9844 38.0004 32.9743 38.0004 32.9613V27.0267C38.0004 27.0143 37.9939 27.0036 37.9933 26.9905C37.9909 26.965 37.9879 26.9412 37.9832 26.9163ZM32.0599 23.621L36.4382 27.0267L32.0599 30.4313L27.6816 27.0255L32.0599 23.621ZM27.3075 28.2398L31.4662 31.4745V35.9057L27.3075 32.6715V28.2398ZM32.6537 31.4745L36.8123 28.2404V32.6715L32.6537 35.9057V31.4745ZM19.0004 1.63145L23.3787 5.03602L19.0004 8.44117L14.6221 5.03661L19.0004 1.63145ZM14.248 9.09252C14.248 9.09192 14.248 9.09074 14.248 9.09014V6.24905L18.4066 9.4838V13.9155L14.248 10.6808V9.09252ZM19.5941 9.4838L23.7528 6.24964V9.07649V9.10677V10.682L19.5941 13.9155V9.4838ZM10.3192 27.0273L5.94085 30.4319L1.56254 27.0261L5.94085 23.6216L10.3192 27.0273ZM1.18848 28.2398L5.3471 31.4745V35.9057L1.18848 32.6715V28.2398ZM6.5346 31.4745L10.6932 28.2404V32.6715L6.5346 35.9057V31.4745ZM11.8807 32.6062V27.0267C11.8807 27.0143 11.8742 27.0036 11.8736 26.9905C11.8718 26.965 11.8683 26.9412 11.8635 26.9163C11.8582 26.889 11.851 26.8629 11.8421 26.8361C11.8332 26.8118 11.8255 26.7892 11.8142 26.7661C11.8029 26.7447 11.7899 26.7251 11.7768 26.7043C11.7673 26.6907 11.7655 26.6746 11.7554 26.6616C11.7477 26.6515 11.7364 26.6479 11.7281 26.6384C11.7109 26.6182 11.6925 26.601 11.6723 26.5832C11.664 26.5755 11.6599 26.566 11.6515 26.5589L6.30541 22.4002C6.29295 22.3901 6.27751 22.3884 6.26504 22.38C6.2312 22.3575 6.19676 22.3426 6.15935 22.3272C6.12313 22.313 6.08929 22.2993 6.05188 22.2916C6.01982 22.2856 5.98895 22.2839 5.9557 22.2833C5.9462 22.0772 5.93788 21.87 5.93788 21.6628C5.93788 16.7222 8.70595 12.2501 13.0605 10.0277V10.9705C13.0605 10.983 13.067 10.9937 13.0682 11.0068C13.0706 11.0477 13.0807 11.0857 13.092 11.1255C13.1021 11.1617 13.1098 11.1968 13.1264 11.2294C13.1419 11.2621 13.1638 11.2894 13.1864 11.3185C13.2113 11.3523 13.2357 11.3844 13.2671 11.4117C13.2766 11.42 13.2802 11.4313 13.2903 11.439L18.6364 15.5976C18.6602 15.616 18.6869 15.6244 18.7124 15.638C18.7279 15.6475 18.7409 15.66 18.7569 15.6671C18.7676 15.6725 18.7783 15.676 18.7896 15.6796C18.8585 15.7063 18.9291 15.7223 19.0004 15.7223H19.001H19.0016C19.0728 15.7223 19.1435 15.7063 19.2124 15.6796C19.2236 15.6754 19.2343 15.6719 19.245 15.6671C19.261 15.66 19.2741 15.6475 19.2895 15.638C19.3151 15.6244 19.3418 15.616 19.3655 15.5976L24.7117 11.4402C24.7218 11.4325 24.7253 11.4212 24.7348 11.4129C24.7663 11.3856 24.7906 11.3529 24.8156 11.3197C24.8375 11.29 24.8595 11.2627 24.8761 11.2306C24.8916 11.198 24.8999 11.1635 24.91 11.1279C24.9213 11.0875 24.9314 11.0489 24.9343 11.0074C24.9349 10.9949 24.9414 10.9848 24.9414 10.9717V10.0277C29.2954 12.2513 32.0629 16.7222 32.0629 21.6628C32.0629 21.8694 32.0546 22.0766 32.0451 22.2839C32.0118 22.2845 31.9815 22.2862 31.9495 22.2922C31.9121 22.2999 31.8776 22.313 31.8414 22.3278C31.8046 22.3426 31.7702 22.3581 31.7369 22.38C31.7239 22.389 31.7078 22.3913 31.6954 22.4008L26.3492 26.5583C26.3391 26.566 26.3356 26.5773 26.3261 26.5856C26.3077 26.6016 26.2904 26.6182 26.2738 26.6366C26.2655 26.6461 26.2536 26.6503 26.2453 26.661C26.2352 26.674 26.2329 26.6901 26.2239 26.7031C26.2103 26.7251 26.196 26.7447 26.1854 26.7679C26.1747 26.7898 26.1675 26.8112 26.1592 26.8344C26.1497 26.8611 26.1432 26.886 26.1379 26.9133C26.1325 26.9395 26.1289 26.9644 26.1272 26.9911C26.1266 27.0036 26.12 27.0137 26.12 27.0267V32.6056C24.0004 33.989 21.547 34.7253 19.0004 34.7253C16.4538 34.7253 14.0016 33.989 11.8807 32.6062Z" fill="#924705"/>
</g>
<defs>
<clipPath id="clip0_341_10827">
<rect width="38" height="38" fill="white"/>
</clipPath>
</defs>
</svg>
