<svg width="41" height="41" viewBox="0 0 41 41" fill="none" xmlns="http://www.w3.org/2000/svg">
<g clip-path="url(#clip0_341_10752)">
<path d="M20.5 0C9.19561 0 0 9.19649 0 20.5C0 31.8035 9.19561 41 20.5 41C31.8044 41 41 31.8035 41 20.5C41 9.19649 31.8044 0 20.5 0ZM20.5 39.2917C10.1382 39.2917 1.70831 30.8618 1.70831 20.5C1.70831 10.1382 10.1382 1.70831 20.5 1.70831C30.8618 1.70831 39.2917 10.1382 39.2917 20.5C39.2917 30.8618 30.8618 39.2917 20.5 39.2917Z" fill="#FF4E4E"/>
<path d="M16.2295 8.54102H11.1045C9.69143 8.54102 8.54199 9.69046 8.54199 11.1035V16.2285C8.54199 17.6416 9.69143 18.791 11.1045 18.791H16.2295C17.6425 18.791 18.792 17.6416 18.792 16.2285V11.1035C18.792 9.69046 17.6425 8.54102 16.2295 8.54102ZM17.0836 16.2285C17.0836 16.6998 16.6999 17.0827 16.2294 17.0827H11.1044C10.634 17.0827 10.2502 16.6999 10.2502 16.2285V11.1035C10.2502 10.6323 10.634 10.2493 11.1044 10.2493H16.2294C16.6999 10.2493 17.0836 10.6322 17.0836 11.1035V16.2285Z" fill="#FF4E4E"/>
<path d="M29.8955 8.54102H24.7705C23.3574 8.54102 22.208 9.69046 22.208 11.1035V16.2285C22.208 17.6416 23.3574 18.791 24.7705 18.791H29.8955C31.3086 18.791 32.458 17.6416 32.458 16.2285V11.1035C32.458 9.69046 31.3086 8.54102 29.8955 8.54102ZM30.7497 16.2285C30.7497 16.6998 30.366 17.0827 29.8955 17.0827H24.7705C24.3 17.0827 23.9163 16.6999 23.9163 16.2285V11.1035C23.9163 10.6323 24.3 10.2493 24.7705 10.2493H29.8955C30.366 10.2493 30.7497 10.6322 30.7497 11.1035V16.2285Z" fill="#FF4E4E"/>
<path d="M16.2295 22.209H11.1045C9.69143 22.209 8.54199 23.3584 8.54199 24.7715V29.8965C8.54199 31.3095 9.69143 32.459 11.1045 32.459H16.2295C17.6425 32.459 18.792 31.3095 18.792 29.8965V24.7715C18.792 23.3585 17.6425 22.209 16.2295 22.209ZM17.0836 29.8965C17.0836 30.3677 16.6999 30.7507 16.2294 30.7507H11.1044C10.634 30.7507 10.2502 30.3678 10.2502 29.8965V24.7715C10.2502 24.3002 10.634 23.9173 11.1044 23.9173H16.2294C16.6999 23.9173 17.0836 24.3001 17.0836 24.7715V29.8965Z" fill="#FF4E4E"/>
<path d="M29.8955 22.209H24.7705C23.3574 22.209 22.208 23.3584 22.208 24.7715V29.8965C22.208 31.3095 23.3574 32.459 24.7705 32.459H29.8955C31.3086 32.459 32.458 31.3095 32.458 29.8965V24.7715C32.458 23.3585 31.3086 22.209 29.8955 22.209ZM30.7497 29.8965C30.7497 30.3677 30.366 30.7507 29.8955 30.7507H24.7705C24.3 30.7507 23.9163 30.3678 23.9163 29.8965V24.7715C23.9163 24.3002 24.3 23.9173 24.7705 23.9173H29.8955C30.366 23.9173 30.7497 24.3001 30.7497 24.7715V29.8965Z" fill="#FF4E4E"/>
</g>
<defs>
<clipPath id="clip0_341_10752">
<rect width="41" height="41" fill="white"/>
</clipPath>
</defs>
</svg>
