<svg width="14" height="14" viewBox="0 0 14 14" fill="none" xmlns="http://www.w3.org/2000/svg">
<path fill-rule="evenodd" clip-rule="evenodd" d="M13.3996 6.99074C13.3996 7.42356 13.3555 7.85577 13.269 8.27709C13.1846 8.68839 13.0596 9.0922 12.8958 9.47821C12.7359 9.8574 12.5374 10.2228 12.3055 10.5636C12.0771 10.9022 11.8139 11.2199 11.5248 11.5095C11.2351 11.7978 10.9164 12.0602 10.5779 12.2896C10.236 12.5199 9.87011 12.7181 9.49069 12.8788C9.10412 13.0417 8.69938 13.1665 8.28843 13.2508C7.86656 13.3375 7.43277 13.3818 6.99932 13.3818C6.56555 13.3818 6.13178 13.3375 5.71051 13.2508C5.29894 13.1665 4.89422 13.0417 4.50795 12.8788C4.12856 12.7181 3.76228 12.5199 3.42039 12.2896C3.08194 12.0602 2.76317 11.7978 2.47409 11.5095C2.18471 11.2199 1.92156 10.9022 1.6928 10.5636C1.46216 10.2228 1.26339 9.85738 1.10277 9.47821C0.93899 9.0922 0.813689 8.68837 0.728994 8.27709C0.643372 7.85577 0.599609 7.42356 0.599609 6.99074C0.599609 6.55759 0.643347 6.12445 0.729019 5.70406C0.813714 5.29276 0.939015 4.88833 1.10279 4.50293C1.26342 4.12347 1.46219 3.75774 1.69283 3.41695C1.92159 3.07806 2.18474 2.76098 2.47412 2.47106C2.7632 2.1827 3.08196 1.9209 3.42042 1.69185C3.7623 1.46059 4.12859 1.26246 4.50797 1.10142C4.89425 0.938175 5.29894 0.813055 5.71054 0.729433C6.13181 0.643309 6.56558 0.599609 6.99935 0.599609C7.43279 0.599609 7.86656 0.643309 8.28846 0.729433C8.69941 0.81308 9.10412 0.9382 9.49072 1.10142C9.87011 1.26243 10.2361 1.46059 10.5779 1.69185C10.9164 1.9209 11.2352 2.1827 11.5249 2.47106C11.814 2.76098 12.0771 3.07806 12.3055 3.41695C12.5374 3.75774 12.7359 4.1235 12.8958 4.50293C13.0596 4.88833 13.1846 5.29276 13.269 5.70406C13.3555 6.12445 13.3996 6.55759 13.3996 6.99074ZM4.6673 2.05414C3.14314 2.77285 2.00558 4.17527 1.65087 5.86542C1.79496 5.86667 4.07258 5.89538 6.69677 5.19914C5.7508 3.52085 4.74012 2.15122 4.6673 2.05414ZM7.1496 6.03957C4.33541 6.88087 1.63494 6.82033 1.53807 6.81661C1.53649 6.87527 1.53369 6.93205 1.53369 6.99073C1.53369 8.39282 2.0634 9.67104 2.93407 10.6375C2.93219 10.6347 4.42792 7.98497 7.37743 7.03255C7.44867 7.00884 7.52119 6.9876 7.59306 6.96702C7.45589 6.65684 7.30616 6.34602 7.1496 6.03957ZM10.6089 2.89455C9.64661 2.04727 8.38313 1.53333 6.9993 1.53333C6.55521 1.53333 6.12425 1.58701 5.71142 1.68624C5.79328 1.7961 6.81992 3.15607 7.75464 4.86991C9.81695 4.09788 10.5954 2.91451 10.6089 2.89455ZM7.96563 7.87138C7.95345 7.87541 7.94128 7.87889 7.92938 7.88324C4.70458 9.00583 3.65148 11.2682 3.64008 11.2929C4.56796 12.0134 5.73177 12.4481 6.99934 12.4481C7.75623 12.4481 8.4772 12.2942 9.13317 12.0156C9.05223 11.5388 8.73472 9.86736 7.96563 7.87138ZM10.0535 11.5169C11.2808 10.69 12.1524 9.37681 12.3955 7.85575C12.283 7.81955 10.7539 7.33616 8.98969 7.61859C9.7066 9.58587 9.99789 11.188 10.0535 11.5169ZM8.17534 5.68317C8.30219 5.94344 8.42504 6.20834 8.53846 6.47456C8.57879 6.57007 8.61817 6.6637 8.6566 6.7573C10.5342 6.52137 12.384 6.91831 12.4631 6.93452C12.4506 5.64072 11.9871 4.4533 11.2202 3.52368C11.2099 3.53831 10.3333 4.80312 8.17534 5.68317Z" fill="#42BDEC"/>
</svg>
