<svg width="43" height="43" viewBox="0 0 43 43" fill="none" xmlns="http://www.w3.org/2000/svg">
<g clip-path="url(#clip0_341_10820)">
<path d="M37.2667 12.8102C37.2632 9.64535 34.6982 7.08032 31.5334 7.07682H29.3512C28.9803 3.01758 25.5765 -0.0898438 21.5001 -0.0898438C17.4237 -0.0898438 14.0199 3.01758 13.6489 7.07682H11.4667C8.30017 7.07682 5.7334 9.6436 5.7334 12.8102C5.7334 15.9767 8.30017 18.5435 11.4667 18.5435H19.3501V17.1102H11.4667C9.09207 17.1102 7.16673 15.1848 7.16673 12.8102C7.16673 10.4355 9.09207 8.51016 11.4667 8.51016H15.0501V7.79349C15.0501 4.23115 17.9377 1.34349 21.5001 1.34349C25.0624 1.34349 27.9501 4.23115 27.9501 7.79349V8.51016H31.5334C33.9081 8.51016 35.8334 10.4355 35.8334 12.8102C35.8334 15.1848 33.9081 17.1102 31.5334 17.1102H23.6501V18.5435H31.5334C34.6982 18.54 37.2632 15.975 37.2667 12.8102Z" fill="#910078"/>
<path d="M34.4001 40.76V28.5767C34.3987 27.3897 33.437 26.4281 32.2501 26.4267H30.8167V24.8614C31.7598 24.5297 32.3488 23.5905 32.2364 22.597C32.1241 21.6035 31.3399 20.8193 30.3464 20.707C29.353 20.5947 28.4137 21.1836 28.082 22.1267H22.2167V13.1068L23.86 14.7501L24.8734 13.7367L21.5001 10.3633L18.1267 13.7367L19.1401 14.7501L20.7834 13.1068V22.1267H14.9181C14.5864 21.1836 13.6472 20.5943 12.6537 20.707C11.6602 20.8193 10.876 21.6032 10.7637 22.5967C10.6514 23.5901 11.2403 24.5297 12.1834 24.8611V27.1434H7.8834C6.69642 27.1448 5.7348 28.1064 5.7334 29.2934V37.8934C5.7348 39.0803 6.69642 40.042 7.8834 40.0434H12.1834V41.4767H10.0334V42.91H15.7667V41.4767H13.6167V40.0434H17.9167C19.1037 40.042 20.0653 39.0803 20.0667 37.8934V29.2934C20.0653 28.1064 19.1037 27.1448 17.9167 27.1434H13.6167V24.8614C14.2239 24.6448 14.7015 24.1672 14.9181 23.56H28.082C28.2986 24.1672 28.7763 24.6448 29.3834 24.8611V26.4267H25.0834C23.8964 26.4281 22.9348 27.3897 22.9334 28.5767V40.76C22.9348 41.947 23.8964 42.9086 25.0834 42.91H32.2501C33.437 42.9086 34.3987 41.947 34.4001 40.76ZM18.6334 37.8934C18.633 38.2891 18.3125 38.6097 17.9167 38.61H7.8834C7.48762 38.6097 7.16708 38.2891 7.16673 37.8934V36.46H18.6334V37.8934ZM17.9167 28.5767C18.3125 28.577 18.633 28.8976 18.6334 29.2934V35.0267H7.16673V29.2934C7.16708 28.8976 7.48762 28.577 7.8834 28.5767H17.9167ZM12.9001 23.56C12.5043 23.56 12.1834 23.2391 12.1834 22.8434C12.1834 22.4476 12.5043 22.1267 12.9001 22.1267C13.2958 22.1267 13.6167 22.4476 13.6167 22.8434C13.6164 23.2391 13.2958 23.5597 12.9001 23.56ZM30.1001 22.1267C30.4958 22.1267 30.8167 22.4476 30.8167 22.8434C30.8167 23.2391 30.4958 23.56 30.1001 23.56C29.7043 23.56 29.3834 23.2391 29.3834 22.8434C29.3838 22.4476 29.7043 22.127 30.1001 22.1267ZM24.3667 28.5767C24.3671 28.1809 24.6876 27.8604 25.0834 27.86H32.2501C32.6458 27.8604 32.9664 28.1809 32.9667 28.5767V37.8934H24.3667V28.5767ZM24.3667 40.76V39.3267H32.9667V40.76C32.9664 41.1558 32.6458 41.4763 32.2501 41.4767H25.0834C24.6876 41.4763 24.3671 41.1558 24.3667 40.76Z" fill="#910078"/>
</g>
<defs>
<clipPath id="clip0_341_10820">
<rect width="43" height="43" fill="white"/>
</clipPath>
</defs>
</svg>
