<svg width="14" height="14" viewBox="0 0 14 14" fill="none" xmlns="http://www.w3.org/2000/svg">
<path fill-rule="evenodd" clip-rule="evenodd" d="M7.00021 0.599609C5.26206 0.599609 5.04392 0.607209 4.36125 0.638276C3.67991 0.669477 3.21484 0.777345 2.8079 0.935613C2.38696 1.09908 2.02989 1.31775 1.67415 1.67362C1.31815 2.02936 1.09948 2.38643 0.93548 2.80723C0.776811 3.2143 0.66881 3.67951 0.638143 4.36058C0.607609 5.04326 0.599609 5.26152 0.599609 6.99968C0.599609 8.73783 0.607343 8.9553 0.638276 9.63797C0.66961 10.3193 0.777478 10.7844 0.935613 11.1913C1.09921 11.6123 1.31788 11.9693 1.67375 12.3251C2.02936 12.6811 2.38643 12.9003 2.8071 13.0637C3.2143 13.222 3.67951 13.3299 4.36072 13.3611C5.04339 13.3921 5.26139 13.3997 6.99941 13.3997C8.73769 13.3997 8.95516 13.3921 9.63784 13.3611C10.3192 13.3299 10.7848 13.222 11.192 13.0637C11.6128 12.9003 11.9693 12.6811 12.3249 12.3251C12.6809 11.9693 12.8996 11.6123 13.0636 11.1915C13.2209 10.7844 13.3289 10.3192 13.3609 9.6381C13.3916 8.95543 13.3996 8.73783 13.3996 6.99968C13.3996 5.26152 13.3916 5.04339 13.3609 4.36071C13.3289 3.67937 13.2209 3.2143 13.0636 2.80737C12.8996 2.38643 12.6809 2.02936 12.3249 1.67362C11.9689 1.31762 11.6129 1.09895 11.1916 0.935613C10.7836 0.777345 10.3182 0.669477 9.6369 0.638276C8.95423 0.607209 8.73689 0.599609 6.99821 0.599609H7.00021ZM6.42604 1.75294C6.59644 1.75267 6.78658 1.75294 7.00018 1.75294C8.709 1.75294 8.91154 1.75907 9.58634 1.78974C10.2103 1.81827 10.549 1.92254 10.7746 2.01014C11.0733 2.12614 11.2862 2.26481 11.5101 2.48881C11.7341 2.71281 11.8728 2.92615 11.989 3.22482C12.0766 3.45015 12.181 3.78882 12.2094 4.41283C12.2401 5.0875 12.2468 5.29017 12.2468 6.99819C12.2468 8.70621 12.2401 8.90888 12.2094 9.58355C12.1809 10.2076 12.0766 10.5462 11.989 10.7716C11.873 11.0702 11.7341 11.2829 11.5101 11.5068C11.2861 11.7308 11.0734 11.8694 10.7746 11.9854C10.5493 12.0734 10.2103 12.1774 9.58634 12.206C8.91167 12.2366 8.709 12.2433 7.00018 12.2433C5.29123 12.2433 5.0887 12.2366 4.41402 12.206C3.79002 12.1772 3.45134 12.0729 3.22561 11.9853C2.92694 11.8693 2.7136 11.7306 2.4896 11.5066C2.2656 11.2826 2.12693 11.0698 2.01066 10.771C1.92306 10.5457 1.81866 10.207 1.79026 9.58302C1.75959 8.90835 1.75346 8.70568 1.75346 6.99659C1.75346 5.28751 1.75959 5.0859 1.79026 4.41123C1.81879 3.78722 1.92306 3.44855 2.01066 3.22295C2.12666 2.92428 2.2656 2.71095 2.4896 2.48694C2.7136 2.26294 2.92694 2.12427 3.22561 2.00801C3.45121 1.92001 3.79002 1.816 4.41402 1.78734C5.00443 1.76067 5.23323 1.75267 6.42604 1.75134V1.75294ZM10.4165 2.81562C9.99248 2.81562 9.64848 3.15922 9.64848 3.58336C9.64848 4.00736 9.99248 4.35137 10.4165 4.35137C10.8405 4.35137 11.1845 4.00736 11.1845 3.58336C11.1845 3.15935 10.8405 2.81562 10.4165 2.81562ZM7.00022 3.71296C5.18513 3.71296 3.71352 5.18457 3.71352 6.99966C3.71352 8.81474 5.18513 10.2857 7.00022 10.2857C8.81531 10.2857 10.2864 8.81474 10.2864 6.99966C10.2864 5.18457 8.81531 3.71296 7.00022 3.71296ZM7.0002 4.8663C8.17834 4.8663 9.13355 5.82138 9.13355 6.99966C9.13355 8.1778 8.17834 9.13301 7.0002 9.13301C5.82192 9.13301 4.86684 8.1778 4.86684 6.99966C4.86684 5.82138 5.82192 4.8663 7.0002 4.8663Z" fill="#42BDEC"/>
</svg>
