<svg width="41" height="41" viewBox="0 0 41 41" fill="none" xmlns="http://www.w3.org/2000/svg">
<path d="M28.8281 0.640625H12.1719C11.4925 0.641515 10.8413 0.911778 10.3609 1.39215C9.88053 1.87252 9.61026 2.52378 9.60938 3.20312V37.7969C9.61026 38.4762 9.88053 39.1275 10.3609 39.6079C10.8413 40.0882 11.4925 40.3585 12.1719 40.3594H28.8281C29.5075 40.3585 30.1587 40.0882 30.6391 39.6079C31.1195 39.1275 31.3897 38.4762 31.3906 37.7969V3.20312C31.3897 2.52378 31.1195 1.87252 30.6391 1.39215C30.1587 0.911778 29.5075 0.641515 28.8281 0.640625ZM23.4981 1.92188L23.1378 3.20312H17.7974L17.4771 1.92188H23.4981ZM30.1094 37.7969C30.1089 38.1365 29.9738 38.4622 29.7336 38.7024C29.4934 38.9426 29.1678 39.0777 28.8281 39.0781H12.1719C11.8322 39.0777 11.5066 38.9426 11.2664 38.7024C11.0262 38.4622 10.8911 38.1365 10.8906 37.7969V3.20312C10.8911 2.86345 11.0262 2.53782 11.2664 2.29764C11.5066 2.05745 11.8322 1.92232 12.1719 1.92188H16.1558L16.6755 3.9991C16.7101 4.13769 16.7901 4.26073 16.9027 4.34866C17.0153 4.43658 17.154 4.48435 17.2969 4.48438H23.623C23.7627 4.48437 23.8984 4.43877 24.0097 4.35449C24.1211 4.27022 24.2018 4.15189 24.2396 4.01752L24.829 1.92188H28.8281C29.1678 1.92232 29.4934 2.05745 29.7336 2.29764C29.9738 2.53782 30.1089 2.86345 30.1094 3.20312V37.7969Z" fill="#6E00FA"/>
<path d="M17.2969 36.5156H12.8125C12.6426 36.5156 12.4796 36.5831 12.3595 36.7033C12.2394 36.8234 12.1719 36.9863 12.1719 37.1562C12.1719 37.3262 12.2394 37.4891 12.3595 37.6092C12.4796 37.7294 12.6426 37.7969 12.8125 37.7969H17.2969C17.4668 37.7969 17.6297 37.7294 17.7499 37.6092C17.87 37.4891 17.9375 37.3262 17.9375 37.1562C17.9375 36.9863 17.87 36.8234 17.7499 36.7033C17.6297 36.5831 17.4668 36.5156 17.2969 36.5156Z" fill="#6E00FA"/>
<path d="M19.8594 36.5156H19.2188C19.0488 36.5156 18.8859 36.5831 18.7658 36.7033C18.6456 36.8234 18.5781 36.9863 18.5781 37.1562C18.5781 37.3262 18.6456 37.4891 18.7658 37.6092C18.8859 37.7294 19.0488 37.7969 19.2188 37.7969H19.8594C20.0293 37.7969 20.1922 37.7294 20.3124 37.6092C20.4325 37.4891 20.5 37.3262 20.5 37.1562C20.5 36.9863 20.4325 36.8234 20.3124 36.7033C20.1922 36.5831 20.0293 36.5156 19.8594 36.5156Z" fill="#6E00FA"/>
<path d="M22.7515 16.7475C22.6794 16.7043 22.5994 16.6756 22.5162 16.6632C22.433 16.6508 22.3481 16.655 22.2665 16.6754C22.1849 16.6958 22.1081 16.7321 22.0405 16.7821C21.9729 16.8322 21.9158 16.8951 21.8726 16.9673L18.0288 23.3735C17.9414 23.5192 17.9154 23.6937 17.9566 23.8585C17.9978 24.0234 18.1028 24.1651 18.2485 24.2525C18.3942 24.3399 18.5687 24.3659 18.7335 24.3246C18.8983 24.2834 19.0401 24.1784 19.1275 24.0327L22.9712 17.6265C23.0145 17.5543 23.0432 17.4744 23.0555 17.3912C23.0679 17.308 23.0638 17.2231 23.0434 17.1415C23.023 17.0599 22.9867 16.9831 22.9366 16.9155C22.8865 16.8479 22.8236 16.7908 22.7515 16.7475Z" fill="#6E00FA"/>
<path d="M24.8441 16.8966C24.7915 16.8309 24.7265 16.7762 24.6528 16.7357C24.5791 16.6951 24.4981 16.6694 24.4145 16.6602C24.2456 16.6414 24.0762 16.6906 23.9435 16.7968C23.8108 16.9029 23.7258 17.0575 23.707 17.2264C23.6883 17.3953 23.7374 17.5647 23.8436 17.6974L26.0858 20.5001L23.8436 23.3029C23.7374 23.4355 23.6883 23.605 23.707 23.7739C23.7258 23.9428 23.8108 24.0973 23.9435 24.2035C24.0762 24.3097 24.2456 24.3588 24.4145 24.3401C24.5834 24.3214 24.7379 24.2363 24.8441 24.1036L27.4066 20.9005C27.4976 20.7869 27.5472 20.6457 27.5472 20.5001C27.5472 20.3546 27.4976 20.2134 27.4066 20.0997L24.8441 16.8966Z" fill="#6E00FA"/>
<path d="M16.1562 24.1037C16.2624 24.2363 16.4169 24.3214 16.5858 24.3401C16.7547 24.3588 16.9241 24.3097 17.0568 24.2035C17.1895 24.0973 17.2745 23.9428 17.2933 23.7739C17.312 23.605 17.2628 23.4355 17.1567 23.3029L14.9145 20.5001L17.1567 17.6974C17.2092 17.6317 17.2484 17.5563 17.2718 17.4755C17.2952 17.3947 17.3025 17.31 17.2933 17.2264C17.284 17.1428 17.2583 17.0618 17.2178 16.9881C17.1772 16.9143 17.1225 16.8493 17.0568 16.7968C16.9911 16.7442 16.9157 16.705 16.8349 16.6816C16.7541 16.6582 16.6694 16.6509 16.5858 16.6602C16.5022 16.6694 16.4212 16.6951 16.3475 16.7357C16.2737 16.7762 16.2087 16.8309 16.1562 16.8966L13.5937 20.0997C13.5027 20.2134 13.4531 20.3546 13.4531 20.5001C13.4531 20.6457 13.5027 20.7869 13.5937 20.9005L16.1562 24.1037Z" fill="#6E00FA"/>
</svg>
