<svg width="17" height="17" viewBox="0 0 17 17" fill="none" xmlns="http://www.w3.org/2000/svg">
<g clip-path="url(#clip0_359_2323)">
<path d="M16.7923 15.7907L11.958 10.9564C12.8944 9.79971 13.4582 8.32992 13.4582 6.72911C13.4582 3.0189 10.4393 0 6.72908 0C3.01886 0 0 3.01886 0 6.72908C0 10.4393 3.0189 13.4582 6.72911 13.4582C8.32992 13.4582 9.79971 12.8944 10.9564 11.958L15.7907 16.7923C15.9288 16.9304 16.1102 16.9998 16.2915 16.9998C16.4729 16.9998 16.6542 16.9304 16.7923 16.7923C17.0693 16.5153 17.0693 16.0677 16.7923 15.7907ZM6.72911 12.0415C3.79946 12.0415 1.41666 9.65873 1.41666 6.72908C1.41666 3.79943 3.79946 1.41663 6.72911 1.41663C9.65876 1.41663 12.0416 3.79943 12.0416 6.72908C12.0416 9.65873 9.65873 12.0415 6.72911 12.0415Z" fill="white"/>
</g>
<defs>
<clipPath id="clip0_359_2323">
<rect width="17" height="17" fill="white"/>
</clipPath>
</defs>
</svg>
