<svg width="38" height="38" viewBox="0 0 38 38" fill="none" xmlns="http://www.w3.org/2000/svg">
<g clip-path="url(#clip0_341_10833)">
<path d="M30.912 17.9985H34.0627C34.1887 18.468 34.4811 18.8756 34.8854 19.1455C35.2896 19.4155 35.7782 19.5292 36.2601 19.4657C36.742 19.4021 37.1844 19.1656 37.5049 18.8001C37.8253 18.4346 38.002 17.9651 38.002 17.479C38.002 16.9929 37.8253 16.5234 37.5049 16.1579C37.1844 15.7924 36.742 15.5558 36.2601 15.4923C35.7782 15.4287 35.2896 15.5425 34.8854 15.8124C34.4811 16.0823 34.1887 16.49 34.0627 16.9594H30.912V14.4431H33.2499C33.3325 14.4431 33.4139 14.4234 33.4873 14.3857C33.5608 14.348 33.6242 14.2933 33.6723 14.2261L35.2933 11.9619C35.748 12.1317 36.2491 12.1305 36.703 11.9584C37.1569 11.7863 37.5329 11.4551 37.7608 11.0265C37.9887 10.5979 38.0531 10.101 37.9419 9.62843C37.8307 9.15587 37.5516 8.73982 37.1564 8.45777C36.7613 8.17572 36.2771 8.04688 35.7941 8.09526C35.311 8.14364 34.862 8.36594 34.5307 8.72075C34.1994 9.07556 34.0083 9.5387 33.993 10.0239C33.9777 10.5092 34.1394 10.9834 34.4478 11.3583L32.9827 13.4041H30.9117V11.4777C30.9117 11.3399 30.8569 11.2077 30.7595 11.1103C30.6621 11.0129 30.5299 10.9581 30.3922 10.9581C29.5886 10.958 28.8056 10.704 28.1549 10.2326L31.0212 6.69975C31.4668 6.8996 31.9698 6.93063 32.4365 6.78704C32.9032 6.64346 33.3018 6.33507 33.5579 5.91935C33.8141 5.50363 33.9103 5.00895 33.8287 4.52751C33.7471 4.04608 33.4932 3.61074 33.1144 3.30265C32.7356 2.99456 32.2576 2.83473 31.7697 2.85297C31.2817 2.8712 30.817 3.06625 30.4622 3.40175C30.1074 3.73725 29.8868 4.19032 29.8413 4.6765C29.7959 5.16268 29.9288 5.6488 30.2152 6.04425L27.3982 9.51768C26.8512 8.83857 26.553 7.99273 26.5533 7.12072C26.5532 6.98295 26.4984 6.85085 26.401 6.75344C26.3036 6.65602 26.1715 6.60126 26.0337 6.60118H11.9657C11.828 6.60126 11.6959 6.65602 11.5984 6.75344C11.501 6.85085 11.4463 6.98295 11.4462 7.12072C11.4464 7.99273 11.1483 8.83857 10.6013 9.51768L7.78424 6.04395C8.06952 5.6495 8.20168 5.1648 8.1561 4.68013C8.11052 4.19547 7.89031 3.7439 7.53648 3.40956C7.18266 3.07522 6.71935 2.88091 6.23289 2.86282C5.74642 2.84474 5.26997 3.00411 4.8923 3.31126C4.51462 3.61841 4.26148 4.05238 4.18004 4.53232C4.0986 5.01226 4.19441 5.50544 4.44962 5.91998C4.70483 6.33452 5.10204 6.64215 5.56724 6.78555C6.03244 6.92896 6.53391 6.89836 6.97822 6.69945L9.84455 10.2323C9.19384 10.7037 8.41086 10.9577 7.6073 10.9578C7.46951 10.9578 7.33736 11.0126 7.23993 11.11C7.1425 11.2074 7.08777 11.3396 7.08777 11.4774V13.4038H5.01706L3.55228 11.358C3.86523 10.9797 4.02985 10.5004 4.01544 10.0097C4.00102 9.51888 3.80855 9.05011 3.47394 8.6908C3.13933 8.33149 2.68542 8.10619 2.19692 8.05692C1.70841 8.00765 1.21866 8.13779 0.819042 8.42305C0.419425 8.70831 0.137234 9.12921 0.0251156 9.60723C-0.0870024 10.0852 -0.0213889 10.5877 0.209715 11.0209C0.440818 11.4541 0.821627 11.7884 1.28109 11.9615C1.74056 12.1346 2.24731 12.1346 2.70678 11.9616L4.32772 14.2258C4.37577 14.293 4.43913 14.3477 4.51254 14.3855C4.58595 14.4233 4.66731 14.443 4.74988 14.4431H7.08777V16.9594H3.93703C3.81101 16.49 3.51864 16.0823 3.11439 15.8124C2.71013 15.5425 2.22154 15.4287 1.73963 15.4923C1.25772 15.5558 0.815336 15.7924 0.494879 16.1579C0.174422 16.5234 -0.00226033 16.9929 -0.00226033 17.479C-0.00226033 17.9651 0.174422 18.4346 0.494879 18.8001C0.815336 19.1656 1.25772 19.4021 1.73963 19.4657C2.22154 19.5292 2.71013 19.4155 3.11439 19.1455C3.51864 18.8756 3.81101 18.468 3.93703 17.9985H7.08777V20.9272C7.08777 21.0575 7.09519 21.1867 7.09964 21.3164H4.52722C4.43088 21.3164 4.33645 21.3432 4.25446 21.3938C4.17247 21.4444 4.10615 21.5168 4.06291 21.6029L2.40753 24.9015C1.92873 24.8005 1.42957 24.8772 1.00312 25.1171C0.576664 25.3571 0.252028 25.7439 0.0897413 26.2055C-0.0725456 26.6672 -0.061406 27.172 0.121083 27.6261C0.303572 28.0801 0.644954 28.4522 1.08158 28.6731C1.5182 28.894 2.02025 28.9486 2.49414 28.8267C2.96802 28.7047 3.38138 28.4146 3.65714 28.0104C3.9329 27.6061 4.05224 27.1154 3.99291 26.6297C3.93358 26.144 3.69963 25.6965 3.33467 25.3705L4.84785 22.3543H7.18425C7.49552 24.7141 8.57305 26.9064 10.2513 28.5943L6.88292 31.4763C6.47985 31.1985 5.98949 31.0767 5.50327 31.1338C5.01705 31.1908 4.56817 31.4227 4.24033 31.7863C3.91248 32.1498 3.72805 32.6202 3.72143 33.1097C3.71481 33.5992 3.88645 34.0744 4.20434 34.4467C4.52223 34.819 4.96468 35.063 5.44918 35.1332C5.93367 35.2033 6.42715 35.0949 6.83759 34.828C7.24802 34.5612 7.54741 34.1542 7.6799 33.6829C7.8124 33.2116 7.76898 32.7082 7.55772 32.2666L11.0273 29.2979C11.2862 29.5125 11.5528 29.7197 11.8336 29.9112L18.7072 34.6018C18.7936 34.6602 18.8956 34.6914 18.9999 34.6914C19.1042 34.6914 19.2061 34.6602 19.2926 34.6018L26.1661 29.9112C26.447 29.7197 26.7136 29.5125 26.9725 29.2979L30.442 32.2666C30.2331 32.7054 30.1908 33.2051 30.323 33.6727C30.4551 34.1403 30.7527 34.5439 31.1604 34.8084C31.568 35.0729 32.0579 35.1802 32.5388 35.1103C33.0196 35.0405 33.4587 34.7982 33.7743 34.4287C34.0898 34.0592 34.2603 33.5875 34.2539 33.1016C34.2476 32.6158 34.0648 32.1488 33.7397 31.7876C33.4147 31.4264 32.9694 31.1957 32.4868 31.1385C32.0043 31.0812 31.5174 31.2013 31.1168 31.4763L27.7485 28.5943C29.4267 26.9064 30.5042 24.7141 30.8155 22.3543H33.1516L34.6657 25.3693C34.3082 25.6913 34.0799 26.132 34.0231 26.6097C33.9662 27.0874 34.0848 27.5694 34.3567 27.9662C34.6287 28.363 35.0354 28.6476 35.5014 28.767C35.9674 28.8864 36.4609 28.8325 36.8901 28.6153C37.3194 28.3982 37.6551 28.0325 37.835 27.5864C38.0149 27.1402 38.0266 26.6439 37.868 26.1898C37.7094 25.7357 37.3913 25.3546 36.9728 25.1174C36.5543 24.8802 36.0639 24.803 35.5928 24.9003L33.9374 21.6017C33.8942 21.5156 33.8279 21.4432 33.7459 21.3926C33.6639 21.342 33.5695 21.3152 33.4731 21.3152H30.9007C30.9051 21.1855 30.9126 21.0563 30.9126 20.926L30.912 17.9985ZM35.996 16.5141C36.1868 16.5141 36.3733 16.5707 36.532 16.6767C36.6907 16.7828 36.8143 16.9334 36.8874 17.1098C36.9604 17.2861 36.9795 17.4801 36.9423 17.6672C36.905 17.8544 36.8131 18.0263 36.6782 18.1612C36.5433 18.2962 36.3714 18.3881 36.1842 18.4253C35.997 18.4625 35.803 18.4434 35.6267 18.3704C35.4504 18.2974 35.2997 18.1737 35.1937 18.015C35.0877 17.8564 35.0311 17.6698 35.0311 17.479C35.0314 17.2232 35.1332 16.978 35.3141 16.7971C35.4949 16.6162 35.7402 16.5145 35.996 16.5141ZM35.996 9.12195C36.1868 9.12195 36.3733 9.17854 36.532 9.28456C36.6907 9.39057 36.8143 9.54126 36.8874 9.71756C36.9604 9.89387 36.9795 10.0879 36.9423 10.275C36.905 10.4622 36.8131 10.6341 36.6782 10.769C36.5433 10.904 36.3714 10.9959 36.1842 11.0331C35.997 11.0703 35.803 11.0512 35.6267 10.9782C35.4504 10.9052 35.2997 10.7815 35.1937 10.6228C35.0877 10.4642 35.0311 10.2776 35.0311 10.0868C35.0317 9.83115 35.1335 9.58615 35.3144 9.40547C35.4952 9.22479 35.7403 9.12316 35.996 9.12284V9.12195ZM1.03894 10.0877C1.03894 9.89686 1.09553 9.71031 1.20155 9.55165C1.30756 9.39298 1.45825 9.26931 1.63455 9.19629C1.81086 9.12326 2.00485 9.10415 2.19202 9.14138C2.37918 9.17861 2.55109 9.2705 2.68603 9.40544C2.82097 9.54037 2.91286 9.71229 2.95009 9.89945C2.98732 10.0866 2.96821 10.2806 2.89518 10.4569C2.82216 10.6332 2.69849 10.7839 2.53982 10.8899C2.38115 10.9959 2.19461 11.0525 2.00378 11.0525C1.74799 11.0522 1.50276 10.9505 1.32188 10.7696C1.14101 10.5887 1.03925 10.3435 1.03894 10.0877ZM2.00378 18.4438C1.81296 18.4438 1.62641 18.3872 1.46775 18.2812C1.30908 18.1752 1.18541 18.0245 1.11238 17.8482C1.03936 17.6719 1.02025 17.4779 1.05748 17.2908C1.09471 17.1036 1.1866 16.9317 1.32154 16.7967C1.45647 16.6618 1.62839 16.5699 1.81555 16.5327C2.00271 16.4954 2.19671 16.5146 2.37301 16.5876C2.54931 16.6606 2.7 16.7843 2.80602 16.9429C2.91204 17.1016 2.96863 17.2882 2.96863 17.479C2.96831 17.7348 2.86656 17.98 2.68568 18.1609C2.50481 18.3418 2.25958 18.4435 2.00378 18.4438ZM2.00378 27.8292C1.81296 27.8292 1.62641 27.7726 1.46775 27.6666C1.30908 27.5606 1.18541 27.4099 1.11238 27.2336C1.03936 27.0573 1.02025 26.8633 1.05748 26.6762C1.09471 26.489 1.1866 26.3171 1.32154 26.1821C1.45647 26.0472 1.62839 25.9553 1.81555 25.9181C2.00271 25.8809 2.19671 25.9 2.37301 25.973C2.54931 26.046 2.7 26.1697 2.80602 26.3284C2.91204 26.487 2.96863 26.6736 2.96863 26.8644C2.96831 27.1202 2.86656 27.3654 2.68568 27.5463C2.50481 27.7272 2.25958 27.8289 2.00378 27.8292ZM36.9608 26.8644C36.9608 27.0552 36.9042 27.2418 36.7982 27.4004C36.6922 27.5591 36.5415 27.6828 36.3652 27.7558C36.1889 27.8288 35.9949 27.8479 35.8077 27.8107C35.6206 27.7735 35.4487 27.6816 35.3137 27.5466C35.1788 27.4117 35.0869 27.2398 35.0497 27.0526C35.0124 26.8655 35.0315 26.6715 35.1046 26.4952C35.1776 26.3189 35.3013 26.1682 35.4599 26.0622C35.6186 25.9561 35.8051 25.8995 35.996 25.8995C36.2518 25.8999 36.497 26.0016 36.6779 26.1825C36.8587 26.3634 36.9605 26.6086 36.9608 26.8644ZM31.8367 3.90586C32.0276 3.90586 32.2141 3.96244 32.3728 4.06846C32.5314 4.17448 32.6551 4.32517 32.7281 4.50147C32.8012 4.67777 32.8203 4.87177 32.783 5.05893C32.7458 5.24609 32.6539 5.41801 32.519 5.55295C32.3841 5.68788 32.2121 5.77978 32.025 5.81701C31.8378 5.85423 31.6438 5.83513 31.4675 5.7621C31.2912 5.68907 31.1405 5.56541 31.0345 5.40674C30.9285 5.24807 30.8719 5.06153 30.8719 4.8707C30.8722 4.6149 30.974 4.36968 31.1548 4.1888C31.3357 4.00793 31.5809 3.90617 31.8367 3.90586ZM5.19816 4.8707C5.19816 4.67987 5.25475 4.49333 5.36076 4.33466C5.46678 4.17599 5.61747 4.05233 5.79377 3.9793C5.97007 3.90627 6.16407 3.88717 6.35123 3.9244C6.53839 3.96162 6.71031 4.05352 6.84525 4.18845C6.98018 4.32339 7.07208 4.49531 7.10931 4.68247C7.14653 4.86963 7.12743 5.06363 7.0544 5.23993C6.98137 5.41623 6.85771 5.56692 6.69904 5.67294C6.54037 5.77896 6.35383 5.83554 6.163 5.83554C5.90721 5.83523 5.66198 5.73348 5.4811 5.5526C5.30023 5.37173 5.19847 5.1265 5.19816 4.8707ZM5.75124 34.0933C5.56041 34.0933 5.37387 34.0367 5.2152 33.9307C5.05653 33.8247 4.93286 33.674 4.85984 33.4977C4.78681 33.3214 4.7677 33.1274 4.80493 32.9402C4.84216 32.7531 4.93405 32.5811 5.06899 32.4462C5.20392 32.3113 5.37584 32.2194 5.563 32.1821C5.75017 32.1449 5.94416 32.164 6.12047 32.2371C6.29677 32.3101 6.44745 32.4337 6.55347 32.5924C6.65949 32.7511 6.71608 32.9376 6.71608 33.1285C6.71576 33.3842 6.61401 33.6295 6.43314 33.8104C6.25226 33.9912 6.00703 34.093 5.75124 34.0933ZM25.5804 29.0532L18.9999 33.5432L12.4193 29.0532C11.096 28.1509 10.0132 26.9389 9.2651 25.5227C8.51699 24.1064 8.12624 22.5289 8.12683 20.9272V11.9696C9.23107 11.841 10.2595 11.3434 11.0456 10.5573C11.8317 9.77119 12.3294 8.7427 12.4579 7.63847H25.5418C25.6704 8.7427 26.168 9.77119 26.9541 10.5573C27.7402 11.3434 28.7687 11.841 29.8729 11.9696V20.9272C29.8735 22.5289 29.4828 24.1064 28.7346 25.5227C27.9865 26.9389 26.9037 28.1509 25.5804 29.0532ZM33.2134 33.1285C33.2134 33.3193 33.1568 33.5058 33.0507 33.6645C32.9447 33.8232 32.794 33.9468 32.6177 34.0199C32.4414 34.0929 32.2474 34.112 32.0603 34.0748C31.8731 34.0375 31.7012 33.9456 31.5663 33.8107C31.4313 33.6758 31.3394 33.5038 31.3022 33.3167C31.265 33.1295 31.2841 32.9355 31.3571 32.7592C31.4301 32.5829 31.5538 32.4322 31.7125 32.3262C31.8711 32.2202 32.0577 32.1636 32.2485 32.1636C32.5043 32.1639 32.7495 32.2657 32.9304 32.4466C33.1113 32.6274 33.213 32.8727 33.2134 33.1285Z" fill="black"/>
<path d="M27.9434 13.8178C27.9434 13.7173 27.9143 13.6189 27.8595 13.5346C27.8048 13.4503 27.7268 13.3837 27.6349 13.3428C26.0901 12.6567 24.8549 11.4216 24.1686 9.87681C24.1278 9.78495 24.0611 9.70692 23.9768 9.65217C23.8925 9.59742 23.7941 9.56831 23.6936 9.56836H14.3061C14.2056 9.56831 14.1072 9.59742 14.0229 9.65217C13.9386 9.70692 13.872 9.78495 13.8311 9.87681C13.145 11.4217 11.9099 12.6569 10.3651 13.3431C10.2733 13.384 10.1952 13.4506 10.1405 13.5349C10.0858 13.6192 10.0566 13.7176 10.0566 13.8181V20.9274C10.056 22.2152 10.3701 23.4836 10.9716 24.6223C11.5731 25.7609 12.4438 26.7354 13.5078 27.4607L18.7079 31.009C18.7944 31.0673 18.8963 31.0985 19.0006 31.0985C19.1049 31.0985 19.2068 31.0673 19.2933 31.009L24.4922 27.4607C25.5559 26.7355 26.4262 25.7614 27.0276 24.6231C27.629 23.4848 27.9431 22.2168 27.9428 20.9295L27.9434 13.8178ZM26.9043 20.9274C26.9045 22.0455 26.6316 23.1468 26.1092 24.1353C25.5869 25.1239 24.8309 25.9699 23.9071 26.5998L19 29.9494L14.0927 26.5998C13.1689 25.9699 12.413 25.1238 11.8907 24.1353C11.3684 23.1467 11.0955 22.0455 11.0957 20.9274V14.1474C12.6302 13.3849 13.8734 12.1418 14.6359 10.6074H23.3641C24.1266 12.1418 25.3698 13.3849 26.9043 14.1474V20.9274Z" fill="black"/>
</g>
<defs>
<clipPath id="clip0_341_10833">
<rect width="38" height="38" fill="white"/>
</clipPath>
</defs>
</svg>
