<svg width="41" height="41" viewBox="0 0 41 41" fill="none" xmlns="http://www.w3.org/2000/svg">
<g clip-path="url(#clip0_341_10788)">
<path d="M21.5138 19.4868C21.2007 19.1737 20.6938 19.1737 20.3807 19.4868C20.0684 19.7991 20.0684 20.306 20.3807 20.6191C20.6938 20.9314 21.2007 20.9314 21.5138 20.6191C21.8261 20.306 21.8261 19.7991 21.5138 19.4868Z" fill="#0073C6"/>
<path d="M31.7051 9.29461C30.1404 7.72996 27.6074 7.72988 26.0426 9.29461C24.4819 10.8552 24.4818 13.3953 26.0428 14.9572C27.604 16.5175 30.1441 16.5181 31.7051 14.9571C33.2697 13.3925 33.27 10.8594 31.7051 9.29461ZM30.5726 13.8245C29.6363 14.761 28.1121 14.761 27.1753 13.8247C26.2387 12.8876 26.2387 11.3634 27.1751 10.4271C28.1138 9.48832 29.6337 9.48816 30.5726 10.4271C31.5114 11.3657 31.5116 12.8857 30.5726 13.8245Z" fill="#0073C6"/>
<path d="M40.7648 0.234556C40.6076 0.0773632 40.393 -0.00783979 40.1699 0.000568394C39.9888 0.00705471 35.6778 0.180343 30.5532 1.99163C26.4468 3.44152 23.0241 5.51738 20.38 8.16156C19.7875 8.75405 19.2109 9.38235 18.6592 10.0351C16.0449 8.49612 13.9499 8.97867 12.6254 9.68744C9.57599 11.3194 7.68848 15.7506 7.68848 18.9201C7.68872 19.2439 7.88387 19.536 8.18304 19.6599C8.28209 19.701 8.3862 19.7209 8.48934 19.7209C8.69778 19.7209 8.90254 19.6395 9.05573 19.4863C10.6639 17.8781 12.6475 17.9787 13.2955 18.0639L13.576 18.3444C13.0241 19.6576 12.5795 20.9635 12.2534 22.2337C12.1357 22.6933 12.1754 23.1797 12.3504 23.6246C11.5794 23.9799 10.8355 24.5016 10.1879 25.1493C8.12658 27.2107 7.70802 32.2343 7.6912 32.4471C7.67278 32.6807 7.7575 32.9107 7.92319 33.0764C8.07397 33.2271 8.27793 33.3109 8.48934 33.3109C8.51032 33.3109 8.53138 33.3101 8.55244 33.3084C8.76529 33.2917 13.7891 32.8731 15.8503 30.8119C16.4978 30.1644 17.0194 29.4207 17.3747 28.6498C17.8457 28.835 18.3305 28.8579 18.7665 28.7462C20.036 28.4202 21.3418 27.9757 22.6552 27.4238L22.9356 27.7042C23.0208 28.3523 23.1213 30.3359 21.5132 31.9439C21.2843 32.1729 21.2157 32.5174 21.3397 32.8165C21.4636 33.1158 21.7555 33.3108 22.0795 33.3108C25.2489 33.3108 29.6801 31.4233 31.312 28.3739C32.0208 27.0496 32.5034 24.9546 30.9644 22.3402C31.6168 21.7887 32.2452 21.2122 32.8379 20.6194C35.4821 17.9753 37.5579 14.5525 39.0078 10.4464C40.8191 5.32159 40.9923 1.01051 40.9988 0.829536C41.0068 0.607319 40.922 0.391829 40.7648 0.234556ZM9.47886 17.1977C9.9763 14.7903 11.4212 12.1486 13.3815 11.0995C14.6915 10.3985 16.1233 10.4672 17.6458 11.3005C16.3488 13.0064 15.2212 14.8441 14.2813 16.7848C14.2694 16.7775 14.1252 16.5962 13.8574 16.5359C13.7473 16.511 11.6286 16.0552 9.47886 17.1977ZM14.7179 29.6793C13.6168 30.7804 11.0339 31.3611 9.40134 31.5982C9.63854 29.9656 10.2193 27.3828 11.3203 26.2818C11.9369 25.6652 12.6519 25.1977 13.3705 24.9344L16.0653 27.6292C15.802 28.3478 15.3346 29.0627 14.7179 29.6793ZM18.3686 27.1947C18.1369 27.2541 17.8685 27.1669 17.6689 26.9677C16.6329 25.9317 16.2277 25.5265 16.1005 25.3994C15.8673 25.1662 15.2955 24.5944 14.0324 23.3312C13.8327 23.1311 13.7456 22.8628 13.8048 22.6314C14.0612 21.6325 14.3967 20.6077 14.8046 19.573L21.4267 26.195C20.3918 26.603 19.3671 26.9384 18.3686 27.1947ZM29.9002 27.6182C28.851 29.5784 26.2094 31.0233 23.8021 31.5207C24.5696 30.0763 24.7388 28.2377 24.4584 27.1227C24.3933 26.8638 24.2243 26.7336 24.2149 26.7183C26.1554 25.7784 27.9931 24.6508 29.6991 23.3538C30.5325 24.8764 30.6011 26.3084 29.9002 27.6182ZM31.7056 19.487C30.984 20.2085 30.207 20.9056 29.3962 21.5588C27.4469 23.1283 25.3015 24.4577 23.0125 25.5161L15.4836 17.9873C16.5419 15.6982 17.8714 13.5527 19.4407 11.6037C20.0945 10.7923 20.7915 10.0152 21.5127 9.29402C23.885 6.92163 26.9468 5.03355 30.6153 3.67447L37.3252 10.3844C35.9663 14.0528 34.0782 17.1145 31.7056 19.487ZM37.9013 8.69544L32.3042 3.09831C35.3537 2.15114 38.0066 1.79648 39.3307 1.66899C39.2032 2.9934 38.8484 5.64631 37.9013 8.69544Z" fill="#0073C6"/>
<path d="M19.2488 33.0762C18.9359 32.7635 18.4288 32.7637 18.1162 33.0764L15.8516 35.3418C15.539 35.6546 15.5391 36.1617 15.8518 36.4743C16.1646 36.7869 16.6717 36.7869 16.9843 36.4741L19.2489 34.2087C19.5615 33.8959 19.5615 33.3889 19.2488 33.0762Z" fill="#0073C6"/>
<path d="M7.92451 21.7522C7.61189 21.4394 7.10491 21.4394 6.79205 21.752L4.52664 24.0166C4.21386 24.3293 4.21378 24.8363 4.5264 25.1491C4.83894 25.4617 5.34592 25.462 5.65886 25.1493L7.92427 22.8846C8.23705 22.572 8.23713 22.065 7.92451 21.7522Z" fill="#0073C6"/>
<path d="M13.5865 34.2091C13.2739 33.8964 12.7668 33.8964 12.454 34.2091L7.02952 39.6327C6.71674 39.9455 6.71674 40.4525 7.02944 40.7652C7.34198 41.0779 7.84912 41.0781 8.1619 40.7653L13.5864 35.3416C13.8992 35.0289 13.8992 34.5219 13.5865 34.2091Z" fill="#0073C6"/>
<path d="M7.18021 34.2091C6.86759 33.8964 6.36046 33.8964 6.04775 34.2091L0.62327 39.6327C0.310486 39.9455 0.310486 40.4525 0.62319 40.7652C0.935735 41.0779 1.44287 41.0781 1.75565 40.7653L7.18013 35.3416C7.49292 35.0289 7.49292 34.5219 7.18021 34.2091Z" fill="#0073C6"/>
<path d="M6.79066 27.4141C6.47804 27.1015 5.9709 27.1015 5.6582 27.4142L0.234518 32.8387C-0.0781861 33.1515 -0.0781861 33.6585 0.234598 33.9712C0.547303 34.2839 1.05436 34.2839 1.36706 33.9712L6.79074 28.5467C7.10345 28.2339 7.10345 27.7269 6.79066 27.4141Z" fill="#0073C6"/>
<path d="M24.9105 16.09C24.5977 15.7773 24.0908 15.7773 23.778 16.09L22.6457 17.2223C22.333 17.535 22.333 18.0421 22.6457 18.3548C22.9584 18.6675 23.4654 18.6675 23.7782 18.3548L24.9105 17.2225C25.2232 16.9098 25.2232 16.4028 24.9105 16.09Z" fill="#0073C6"/>
</g>
<defs>
<clipPath id="clip0_341_10788">
<rect width="41" height="41" fill="white"/>
</clipPath>
</defs>
</svg>
