<svg width="42" height="42" viewBox="0 0 42 42" fill="none" xmlns="http://www.w3.org/2000/svg">
<g clip-path="url(#clip0_341_10765)">
<path d="M41.9774 26.2844C41.8728 23.878 41.4543 21.2101 40.8266 18.6991C40.1988 16.2927 39.4141 14.0432 38.4725 12.3169C34.8106 5.88241 30.8348 6.87635 26.0744 8.13186C24.5573 8.49805 22.9356 8.91655 21.2616 9.07349H20.7384C19.0644 8.91655 17.4427 8.49805 15.9257 8.13186C11.1652 6.92867 7.18943 5.88241 3.52753 12.3692C2.5859 14.0955 1.7489 16.345 1.17346 18.7514C0.545703 21.2624 0.1272 23.9303 0.0225747 26.3367C-0.0820509 29.0047 0.179513 30.9403 0.754954 32.3004C1.33039 33.5559 2.1674 34.3406 3.26597 34.6545C4.25991 34.916 5.41079 34.8114 6.61399 34.2883C8.65419 33.4513 11.0083 31.6726 13.31 29.5278C14.9317 27.9584 17.9659 27.1737 21 27.1737C24.0342 27.1737 27.0683 27.9584 28.69 29.5278C30.9918 31.6726 33.3458 33.4513 35.386 34.2883C36.5892 34.7591 37.7401 34.916 38.7341 34.6545C39.7803 34.3406 40.6696 33.6082 41.2451 32.2481C41.8205 30.9403 42.0821 29.0047 41.9774 26.2844ZM39.4664 31.5157C39.1526 32.2481 38.7341 32.6666 38.2109 32.8235C37.6355 32.9805 36.9031 32.8758 36.0661 32.562C34.2352 31.8296 32.0903 30.2079 29.9978 28.22C28.0099 26.2321 24.505 25.2382 21 25.2382C17.4951 25.2382 13.9901 26.2321 11.9499 28.1154C9.80507 30.1033 7.66024 31.7773 5.88161 32.4573C5.0446 32.7712 4.31222 32.9282 3.73678 32.7189C3.21366 32.562 2.79515 32.1435 2.48128 31.4111C2.06277 30.4171 1.85352 28.7954 1.95815 26.389C2.06277 24.1396 2.42896 21.5763 3.05672 19.1699C3.63216 16.9204 4.36454 14.8279 5.25386 13.2585C8.13106 8.07955 11.4791 8.91655 15.4549 9.96281C17.0765 10.3813 18.7506 10.7998 20.5815 10.9568C20.6338 10.9568 20.6338 10.9568 20.6861 10.9568H21.2616C21.3139 10.9568 21.3139 10.9568 21.3662 10.9568C23.2495 10.7998 24.9235 10.3813 26.5452 9.96281C30.5209 8.96887 33.869 8.07955 36.7462 13.2585C37.6355 14.8279 38.3679 16.8681 38.9433 19.1699C39.5187 21.5763 39.9372 24.0873 40.0419 26.389C40.1465 28.7954 39.9372 30.4171 39.4664 31.5157Z" fill="#B0A600"/>
<path d="M16.1876 16.0838C15.6644 15.613 15.0367 15.2468 14.3043 15.1945C14.252 14.5144 13.9381 13.8343 13.4673 13.3635L13.415 13.3112C12.8396 12.7358 12.1072 12.4219 11.2702 12.4219C10.4332 12.4219 9.64847 12.7881 9.12534 13.3112C8.65453 13.782 8.28834 14.4621 8.23602 15.1945C7.50364 15.2468 6.87589 15.5606 6.35276 16.0315L6.30045 16.0838C5.72501 16.6592 5.41113 17.3916 5.41113 18.2286C5.41113 19.0656 5.77732 19.8503 6.30045 20.3734C6.82358 20.8966 7.45133 21.2104 8.23602 21.2627C8.28834 21.9951 8.60221 22.6752 9.12534 23.146C9.70078 23.7214 10.4332 24.0353 11.2702 24.0353C12.1072 24.0353 12.8919 23.6691 13.415 23.146C13.8858 22.6229 14.252 21.9951 14.3043 21.2627C15.0367 21.2104 15.7168 20.8966 16.1876 20.3734C16.763 19.798 17.0769 19.0656 17.0769 18.2286C17.0769 17.3916 16.7107 16.6069 16.1876 16.0838ZM14.8798 19.0133C14.6705 19.2225 14.4089 19.3272 14.0951 19.3272H13.3627C12.8396 19.3272 12.3687 19.7457 12.3687 20.3211V21.0012C12.3687 21.3151 12.2641 21.5766 12.0549 21.7859C11.8456 21.9951 11.584 22.0997 11.2702 22.0997C10.9563 22.0997 10.6947 21.9951 10.4855 21.7859C10.2762 21.5766 10.1716 21.3151 10.1716 21.0012V20.2688C10.1716 19.7457 9.7531 19.2749 9.17765 19.2749H8.44528C8.1314 19.2749 7.86983 19.1702 7.66058 18.961C7.50365 18.804 7.34671 18.5425 7.34671 18.2286C7.34671 17.9147 7.45133 17.6532 7.66058 17.4439C7.66058 17.4439 7.66058 17.4439 7.7129 17.3916C7.92215 17.2347 8.18371 17.13 8.44528 17.13H9.17765C9.70078 17.13 10.1716 16.7115 10.1716 16.1361V15.4037C10.1716 15.0898 10.2762 14.8283 10.4855 14.619C10.6947 14.4098 10.9563 14.3051 11.2702 14.3051C11.584 14.3051 11.8456 14.4098 12.0549 14.619C12.0549 14.619 12.0549 14.619 12.1072 14.6713C12.2641 14.8806 12.3687 15.1421 12.3687 15.4037V16.1361C12.3687 16.6592 12.7872 17.13 13.3627 17.13H14.0951C14.4089 17.13 14.6705 17.2347 14.8798 17.4439C15.089 17.6532 15.1936 17.9147 15.1936 18.2286C15.1936 18.5425 15.089 18.804 14.8798 19.0133Z" fill="#B0A600"/>
<path d="M30.1024 16.3455C31.1136 16.3455 31.9334 15.5257 31.9334 14.5145C31.9334 13.5033 31.1136 12.6836 30.1024 12.6836C29.0912 12.6836 28.2715 13.5033 28.2715 14.5145C28.2715 15.5257 29.0912 16.3455 30.1024 16.3455Z" fill="#B0A600"/>
<path d="M30.1024 23.7732C31.1136 23.7732 31.9334 22.9535 31.9334 21.9423C31.9334 20.9311 31.1136 20.1113 30.1024 20.1113C29.0912 20.1113 28.2715 20.9311 28.2715 21.9423C28.2715 22.9535 29.0912 23.7732 30.1024 23.7732Z" fill="#B0A600"/>
<path d="M26.3886 20.0603C27.3998 20.0603 28.2195 19.2406 28.2195 18.2294C28.2195 17.2182 27.3998 16.3984 26.3886 16.3984C25.3774 16.3984 24.5576 17.2182 24.5576 18.2294C24.5576 19.2406 25.3774 20.0603 26.3886 20.0603Z" fill="#B0A600"/>
<path d="M33.8163 20.0603C34.8275 20.0603 35.6473 19.2406 35.6473 18.2294C35.6473 17.2182 34.8275 16.3984 33.8163 16.3984C32.8051 16.3984 31.9854 17.2182 31.9854 18.2294C31.9854 19.2406 32.8051 20.0603 33.8163 20.0603Z" fill="#B0A600"/>
</g>
<defs>
<clipPath id="clip0_341_10765">
<rect width="42" height="42" fill="white"/>
</clipPath>
</defs>
</svg>
